<svg width="2057" height="965" viewBox="0 0 2057 965" fill="none" xmlns="http://www.w3.org/2000/svg">
<path opacity="0.48" d="M164 287C202.66 287 234 255.66 234 217C234 178.34 202.66 147 164 147C125.34 147 94 178.34 94 217C94 255.66 125.34 287 164 287Z" fill="#FFB5A9"/>
<path opacity="0.48" d="M191 965C296.486 965 382 879.486 382 774C382 668.514 296.486 583 191 583C85.5136 583 0 668.514 0 774C0 879.486 85.5136 965 191 965Z" fill="#FFB5A9"/>
<path opacity="0.48" d="M421 748C442.539 748 460 730.539 460 709C460 687.461 442.539 670 421 670C399.461 670 382 687.461 382 709C382 730.539 399.461 748 421 748Z" fill="#FFB5A9"/>
<path opacity="0.48" d="M143 42C154.598 42 164 32.598 164 21C164 9.40202 154.598 0 143 0C131.402 0 122 9.40202 122 21C122 32.598 131.402 42 143 42Z" fill="#FFB5A9"/>
<path opacity="0.48" d="M240.5 367C256.24 367 269 354.24 269 338.5C269 322.76 256.24 310 240.5 310C224.76 310 212 322.76 212 338.5C212 354.24 224.76 367 240.5 367Z" fill="#FFB5A9"/>
<path opacity="0.48" d="M1952.5 792C2010.21 792 2057 745.214 2057 687.5C2057 629.786 2010.21 583 1952.5 583C1894.79 583 1848 629.786 1848 687.5C1848 745.214 1894.79 792 1952.5 792Z" fill="#FFB5A9"/>
</svg>
