<svg width="1920" height="761" viewBox="0 0 1920 761" fill="none" xmlns="http://www.w3.org/2000/svg">
<path opacity="0.48" d="M73 287C111.66 287 143 255.66 143 217C143 178.34 111.66 147 73 147C34.3401 147 3 178.34 3 217C3 255.66 34.3401 287 73 287Z" fill="#FFB5A9"/>
<path opacity="0.48" d="M100 965C205.486 965 291 879.486 291 774C291 668.514 205.486 583 100 583C-5.48638 583 -91 668.514 -91 774C-91 879.486 -5.48638 965 100 965Z" fill="#FFB5A9"/>
<path opacity="0.48" d="M330 748C351.539 748 369 730.539 369 709C369 687.461 351.539 670 330 670C308.461 670 291 687.461 291 709C291 730.539 308.461 748 330 748Z" fill="#FFB5A9"/>
<path opacity="0.48" d="M52 42C63.598 42 73 32.598 73 21C73 9.40202 63.598 0 52 0C40.402 0 31 9.40202 31 21C31 32.598 40.402 42 52 42Z" fill="#FFB5A9"/>
<path opacity="0.48" d="M149.5 367C165.24 367 178 354.24 178 338.5C178 322.76 165.24 310 149.5 310C133.76 310 121 322.76 121 338.5C121 354.24 133.76 367 149.5 367Z" fill="#FFB5A9"/>
<path opacity="0.48" d="M1861.5 792C1919.21 792 1966 745.214 1966 687.5C1966 629.786 1919.21 583 1861.5 583C1803.79 583 1757 629.786 1757 687.5C1757 745.214 1803.79 792 1861.5 792Z" fill="#FFB5A9"/>
</svg>
