<svg width="61" height="61" viewBox="0 0 61 61" fill="none" xmlns="http://www.w3.org/2000/svg">
<path d="M30.0756 0C13.4509 0 0 13.4509 0 30.0756C0 46.7003 13.4509 60.1511 30.0756 60.1511C46.7003 60.1511 60.1511 46.7003 60.1511 30.0756C60 13.4509 46.5491 0 30.0756 0Z" fill="white" fill-opacity="0.3"/>
<g clip-path="url(#clip0)">
<path d="M41.5111 41.0111C42.1334 41.0111 42.6778 40.8166 43.1445 40.3889L35.2111 32.4555C35.0167 32.6111 34.8223 32.7278 34.6667 32.8444C34.0834 33.2722 33.5778 33.6222 33.2278 33.8555C32.8389 34.0889 32.3723 34.3611 31.75 34.5944C31.1278 34.8666 30.5445 34.9833 30.0389 34.9833H30C29.4556 34.9833 28.9111 34.8666 28.2889 34.5944C27.6667 34.3222 27.2 34.0889 26.8111 33.8555C26.4611 33.6222 25.9556 33.2722 25.3723 32.8444C25.2167 32.7278 25.0223 32.5722 24.8278 32.4555L16.8556 40.3889C17.3223 40.8166 17.8667 41.0111 18.4889 41.0111H41.5111Z" fill="white"/>
<path d="M17.5944 27.4389C17.0111 27.05 16.4667 26.5833 16 26.0778V38.1333L23 31.1333C21.6 30.2 19.7722 28.9556 17.5944 27.4389Z" fill="white"/>
<path d="M42.4444 27.4389C40.3056 28.8778 38.5167 30.1222 37 31.1722L44 38.1722V26.1167C43.5333 26.5833 43.0278 27.05 42.4444 27.4389Z" fill="white"/>
<path d="M41.5111 19H18.4889C17.7111 19 17.0889 19.2722 16.6611 19.8167C16.2333 20.3611 16 21.0222 16 21.8389C16 22.5 16.2722 23.2 16.8556 23.9778C17.4389 24.7556 18.0222 25.3389 18.6833 25.7667C19.0333 26 20.1222 26.7778 21.8722 27.9833C22.8444 28.6444 23.6611 29.2278 24.4 29.7333C25.0222 30.1611 25.5278 30.5111 25.9944 30.8222C26.0333 30.8611 26.1111 30.9 26.2278 30.9778C26.3444 31.0556 26.5 31.1722 26.6556 31.2889C27.0056 31.5222 27.2778 31.7167 27.5111 31.8722C27.7444 32.0278 28.0167 32.1833 28.3278 32.3778C28.6389 32.5722 28.95 32.6889 29.2222 32.8056C29.4944 32.8833 29.7667 32.9611 30 32.9611C30.2333 32.9611 30.5056 32.9222 30.7778 32.8056C31.05 32.7278 31.3611 32.5722 31.6722 32.3778C31.9833 32.1833 32.2556 32.0278 32.4889 31.8722C32.7222 31.7167 32.9944 31.5222 33.3444 31.2889C33.5 31.1722 33.6556 31.0556 33.7722 30.9778C33.8889 30.9 33.9667 30.8611 34.0056 30.8222C34.3556 30.5889 34.8611 30.2 35.6 29.7333C36.8833 28.8389 38.7889 27.5167 41.3167 25.7667C42.0944 25.2222 42.7167 24.6 43.2222 23.8611C43.7278 23.1222 44 22.3056 44 21.4889C44 20.7889 43.7667 20.2056 43.2611 19.7389C42.7556 19.2333 42.1722 19 41.5111 19Z" fill="white"/>
</g>
<defs>
<clipPath id="clip0">
<rect width="28" height="22.0111" fill="white" transform="translate(16 19)"/>
</clipPath>
</defs>
</svg>
