<svg width="61" height="61" viewBox="0 0 61 61" fill="none" xmlns="http://www.w3.org/2000/svg">
<path d="M30.0756 0C13.4509 0 0 13.4509 0 30.0756C0 46.7003 13.4509 60.1511 30.0756 60.1511C46.7003 60.1511 60.1511 46.7003 60.1511 30.0756C60 13.4509 46.5491 0 30.0756 0Z" fill="white" fill-opacity="0.3"/>
<path d="M38.4493 16H21.4273C18.467 16 16 18.467 16 21.4273V38.5727C16 41.533 18.467 44 21.4273 44H38.5727C41.533 44 44 41.533 44 38.5727V27.1013V21.4273C43.8767 18.467 41.4097 16 38.4493 16ZM40.0529 19.207H40.6696V23.8943H35.9824V19.207H40.0529ZM25.9912 27.1013C26.8546 25.8678 28.3348 25.0044 29.9383 25.0044C31.5418 25.0044 33.022 25.8678 33.8855 27.1013C34.5022 27.9648 34.8722 28.9515 34.8722 29.9383C34.8722 32.652 32.652 34.8722 29.9383 34.8722C27.2247 34.8722 25.0044 32.652 25.0044 29.9383C25.0044 28.8282 25.3744 27.8414 25.9912 27.1013ZM41.163 38.4493C41.163 39.9295 39.9295 41.163 38.4493 41.163H21.4273C19.9471 41.163 18.7137 39.9295 18.7137 38.4493V27.1013H22.9075C22.5374 27.9648 22.2907 28.9515 22.2907 29.9383C22.2907 34.1322 25.7445 37.5859 29.9383 37.5859C34.1322 37.5859 37.5859 34.1322 37.5859 29.9383C37.5859 28.9515 37.3392 27.9648 36.9692 27.1013H41.163V38.4493Z" fill="white"/>
</svg>
