<svg width="200" height="40" viewBox="0 0 200 40" fill="none" xmlns="http://www.w3.org/2000/svg">
<path d="M81.2669 39.5515V21.9612C81.2669 19.217 80.6478 16.9188 77.0431 16.9188C73.4943 16.9188 72.7047 19.1588 72.7047 21.9612V39.5515H64.876V21.9612C64.876 19.217 64.257 16.9188 60.6522 16.9188C57.0474 16.9188 56.2017 19.2727 56.2017 22.0727V39.5515H48.4852V10.8679H51.8097L53.5548 15.5733C54.7369 13.2218 57.4983 10.4242 62.9603 10.4242C66.7918 10.4242 69.4387 11.8788 70.9596 14.6836C71.9174 12.9406 74.2255 10.4242 79.5218 10.4242C87.4065 10.4242 89.0955 16.0824 89.0955 22.4703V39.5564L81.2669 39.5515Z" fill="white"/>
<path d="M117.765 39.5515L116.015 35.1273C114.049 38.0945 111.346 40 105.048 40C95.9809 40 94.0652 34.3976 94.0652 26.3854V10.8703H101.726V27.006C101.726 31.0957 102.457 33.5515 107.302 33.5515C112.147 33.5515 113.271 31.1442 113.271 27.006V10.8679H120.988V39.5515H117.765Z" fill="white"/>
<path d="M146.435 39.5515V23.3091C146.435 19.2218 145.59 16.8679 140.803 16.8679C135.957 16.8679 134.888 19.3333 134.888 23.4788V39.5564H127.171V10.8679H130.396L132.197 15.3503C134.156 12.3806 136.747 10.4242 143.055 10.4242C152.18 10.4242 154.152 15.9151 154.152 23.9273V39.5564L146.435 39.5515Z" fill="white"/>
<path d="M163.333 7.89818C160.348 7.89818 158.376 7.11515 158.376 3.97818C158.376 0.785454 160.46 0 163.333 0C166.207 0 168.174 0.785454 168.174 3.97818C168.174 7.11515 166.204 7.89818 163.333 7.89818ZM159.446 39.5515V10.8679H167.218V39.5515H159.446Z" fill="white"/>
<path d="M192.284 39.5515V23.3091C192.284 19.2218 191.438 16.8679 186.651 16.8679C181.808 16.8679 180.738 19.3333 180.738 23.4788V39.5564H173.022V10.8679H176.231L178.033 15.3503C180.004 12.3806 182.595 10.4242 188.905 10.4242C198.028 10.4242 200 15.9151 200 23.9273V39.5564L192.284 39.5515Z" fill="white"/>
<path d="M0.336337 8.99636C0.336337 8.91394 0.190099 8.72485 0.158414 8.64242C0.0358554 8.33444 -0.0165842 8.00327 0.00486431 7.67273C0.099919 6.44848 1.0919 5.60727 2.19843 5.23151C3.20504 4.8897 4.10197 5.02303 5.12319 5.12485C5.12319 5.12485 5.17194 5.12485 5.17438 5.12485C5.17681 5.12485 7.78229 0.969696 12.9177 3.26061C12.9177 3.26061 16.7004 5.15879 15.7254 8.99636C15.762 8.85333 17.2268 9.31151 17.317 9.3503C18.4747 9.80848 19.3473 10.7806 19.998 11.8109C21.2346 13.7826 22.4703 15.7543 23.7052 17.7261C24.3551 18.7459 25.0002 19.764 25.6404 20.7806L26.5861 22.2667C27.8421 24.2384 29.0981 26.2077 30.3541 28.1745C30.4794 28.4429 30.6304 28.6986 30.805 28.9382C29.969 28.5939 29.1501 28.1891 28.3312 27.8036C26.6234 26.9956 24.9287 26.1657 23.247 25.3139C21.1582 24.2473 19.0889 23.1321 17.0611 21.9612C15.068 20.827 13.1395 19.5839 11.2847 18.2376C10.1795 17.4504 9.14988 16.5634 8.20882 15.5879C7.32895 14.6424 6.39547 13.7067 5.78614 12.5552C5.38479 11.7595 5.13678 10.8961 5.05495 10.0097C5.0062 9.57576 4.99402 9.14424 4.98671 8.70788C4.98671 8.42909 4.8819 7.9297 5.18656 7.76242C5.30065 7.71257 5.42566 7.69254 5.54972 7.70424H8.62803C9.0375 7.70424 9.60295 7.81333 9.99292 7.64364C10.0774 7.60967 10.1541 7.55929 10.2188 7.49545C10.2834 7.43161 10.3346 7.35559 10.3693 7.27184C10.404 7.18808 10.4216 7.09828 10.421 7.00769C10.4204 6.9171 10.4016 6.82754 10.3658 6.74424C10.1733 6.32485 9.65657 6.32 9.25929 6.32485C8.68165 6.32485 8.10645 6.36121 7.52637 6.36848C6.12492 6.3903 4.72348 6.4 3.31959 6.41454C2.34467 6.41454 1.36975 6.48 0.779926 7.35758C0.473615 7.84872 0.319347 8.41864 0.336337 8.99636V8.99636Z" fill="white"/>
<path d="M5.16952 13.7648C5.16952 13.7648 6.92438 18.3709 22.4744 25.9782L32.2967 31.2897L37.7148 39.663C37.7148 39.663 33.1156 39.663 28.9405 35.2436L22.3964 26.4048V34.817C22.3964 36.017 19.747 35.4303 19.747 35.5152V38.0727H22.0844V39.4303H8.24783V38.2182H13.198V29.0909C13.198 29.0909 17.2512 31.3406 16.9417 35.1782C16.9417 35.1782 16.3177 36.0315 14.4849 35.5661V38.1624H18.4601C18.5925 36.4097 18.4909 34.6473 18.1579 32.9212C17.6168 30.3564 15.6499 28.8485 13.4368 27.6897C12.7471 27.3309 12.0427 27.0012 11.3286 26.6933C10.6144 26.3855 9.87838 26.1503 9.21056 25.7479C7.31191 24.5988 5.93483 22.5042 5.42544 20.3636C5.11834 19.0788 5.16952 17.7503 5.16952 16.4388V13.7648Z" fill="white"/>
</svg>
