<svg width="195" height="53" viewBox="0 0 195 53" fill="none" xmlns="http://www.w3.org/2000/svg">
<path d="M94.7 42.6V27.6C94.7 25.3 94.2 23.3 91.1 23.3C88.1 23.3 87.4 25.2 87.4 27.6V42.5H80.8V27.6C80.8 25.3 80.3 23.3 77.2 23.3C74.1 23.3 73.4 25.3 73.4 27.7V42.5H67V18.2H69.8L71.3 22.2C72.3 20.2 74.6 17.8 79.2 17.8C82.4 17.8 84.7 19 86 21.4C86.8 19.9 88.8 17.8 93.2 17.8C99.9 17.8 101.3 22.6 101.3 28V42.5L94.7 42.6Z" fill="white"/>
<path d="M125.5 42.6L124 38.8C122.3 41.3 120.1 42.9 114.7 42.9C107.1 42.9 105.4 38.1 105.4 31.3V18.2H111.9V31.9C111.9 35.4 112.5 37.5 116.6 37.5C120.7 37.5 121.6 35.5 121.6 31.9V18.2H128.1V42.5H125.5V42.6Z" fill="white"/>
<path d="M149.7 42.6V28.8C149.7 25.3 149 23.3 144.9 23.3C140.8 23.3 139.9 25.4 139.9 28.9V42.5H133.4V18.2H136.1L137.6 22C139.3 19.5 141.5 17.8 146.8 17.8C154.5 17.8 156.2 22.5 156.2 29.3V42.6H149.7Z" fill="white"/>
<path d="M163.9 15.7C161.4 15.7 159.7 15 159.7 12.4C159.7 9.7 161.5 9 163.9 9C166.3 9 168 9.7 168 12.4C168 15 166.3 15.7 163.9 15.7ZM160.6 42.6V18.2H167.2V42.5H160.6V42.6Z" fill="white"/>
<path d="M188.3 42.6V28.8C188.3 25.3 187.6 23.3 183.5 23.3C179.4 23.3 178.5 25.4 178.5 28.9V42.5H172V18.2H174.7L176.2 22C177.9 19.5 180 17.8 185.4 17.8C193.1 17.8 194.8 22.5 194.8 29.3V42.6H188.3Z" fill="white"/>
<path d="M0.500948 9.12573C0.500948 8.95875 0.333972 8.79177 0.166991 8.62479C1.01892e-05 8.12385 0 7.78989 0 7.28894C0.166981 5.61913 1.50285 4.28328 3.17266 3.78234C4.50851 3.2814 5.84435 3.44838 7.34718 3.61536C7.34718 3.61536 11.0208 -2.22898 18.201 0.943661C18.201 0.943661 23.5443 3.61536 22.2085 9.12573C22.2085 8.95875 24.3793 9.62668 24.3793 9.62668C26.0491 10.2946 27.2179 11.6305 28.2198 13.1333C29.8896 15.972 31.7264 18.6437 33.3962 21.4823C34.2311 22.9852 35.233 24.321 36.0679 25.8238L37.4038 27.9946C39.2406 30.8333 40.9104 33.505 42.7472 36.3437C42.9142 36.6776 43.0811 37.0116 43.4151 37.3455C42.2462 36.8446 41.0774 36.3437 39.9085 35.6757C37.5708 34.5069 35.066 33.338 32.7283 32.1691C29.7226 30.6663 26.884 28.9965 24.0453 27.4937C21.2066 25.8238 18.5349 24.154 15.8632 22.1503C14.3604 20.9814 12.8576 19.8125 11.5217 18.4767C10.3528 17.1408 9.017 15.805 8.18209 14.1352C7.68115 12.9663 7.34717 11.7974 7.18019 10.4616C7.18019 9.79366 7.01323 9.29272 7.01323 8.62479C7.01323 8.29083 6.84624 7.45592 7.34718 7.28894C7.51417 7.28894 7.68115 7.12196 7.84813 7.28894H12.1896C12.6906 7.28894 13.5255 7.45592 14.1934 7.12196C14.6943 6.95498 14.8613 6.28706 14.6943 5.95309C14.3604 5.28517 13.6925 5.28517 13.1915 5.28517C12.3566 5.28517 11.5217 5.28517 10.6868 5.28517C8.68303 5.28517 6.67926 5.28517 4.84247 5.28517C3.50662 5.28517 2.17076 5.45215 1.33585 6.62102C0.66793 7.62291 0.500948 8.29083 0.500948 9.12573Z" fill="white"/>
<path d="M7.18005 15.972C7.18005 15.972 9.68478 22.4842 31.5593 33.338L45.4187 40.8521L53.0999 52.7078C53.0999 52.7078 46.5876 52.7078 40.7433 46.5295L31.5593 34.0059V45.8616C31.5593 47.5314 27.8857 46.6965 27.8857 46.8635V50.537H31.2253V52.5408H11.6885V50.871H18.7018V38.0135C18.7018 38.0135 24.3791 41.1861 24.0452 46.6965C24.0452 46.6965 23.2102 47.8653 20.5385 47.1974V50.871H26.2159C26.3829 48.3663 26.2159 45.8616 25.715 43.5238C24.8801 39.8503 22.2084 37.6795 19.0357 36.1767C18.0338 35.6757 17.0319 35.1748 16.0301 34.8408C15.0282 34.3399 14.0263 34.0059 13.0244 33.505C10.3527 31.8352 8.34893 28.8295 7.681 25.8238C7.18006 23.987 7.34705 22.1503 7.34705 20.3135V15.972H7.18005Z" fill="white"/>
</svg>
