<svg width="20" height="19" viewBox="0 0 20 19" fill="none" xmlns="http://www.w3.org/2000/svg">
<path d="M0.169578 3.25857C0.169578 3.21677 0.0958059 3.12087 0.079822 3.07906C0.0179954 2.92286 -0.00845852 2.7549 0.0023615 2.58725C0.0503132 1.96633 0.550733 1.53969 1.10894 1.34911C1.61674 1.17575 2.0692 1.24337 2.58438 1.29501C2.58438 1.29501 2.60897 1.29501 2.6102 1.29501C2.61143 1.29501 3.9258 -0.812407 6.51642 0.3495C6.51642 0.3495 8.42465 1.31222 7.93284 3.25857C7.95128 3.18603 8.69023 3.41841 8.73573 3.43808C9.31975 3.67047 9.75993 4.16351 10.0882 4.68606C10.712 5.68608 11.3354 6.6861 11.9583 7.68612C12.2862 8.20334 12.6116 8.71974 12.9346 9.23533L13.4116 9.98903C14.0453 10.989 14.6789 11.9878 15.3125 12.9854C15.3757 13.1215 15.4519 13.2512 15.54 13.3727C15.1182 13.1981 14.7051 12.9928 14.292 12.7973C13.4305 12.3874 12.5756 11.9665 11.7272 11.5346C10.6735 10.9936 9.6296 10.428 8.60663 9.83411C7.60117 9.25888 6.62835 8.6284 5.69263 7.94555C5.13513 7.54633 4.6157 7.09646 4.14097 6.60167C3.6971 6.12215 3.22619 5.64755 2.91881 5.06353C2.71634 4.65999 2.59123 4.22211 2.54995 3.77252C2.52536 3.55243 2.51921 3.33357 2.51552 3.11226C2.51552 2.97086 2.46265 2.71758 2.61635 2.63274C2.6739 2.60745 2.73696 2.5973 2.79955 2.60323H4.35245C4.55901 2.60323 4.84426 2.65856 5.04098 2.57249C5.08358 2.55527 5.12231 2.52971 5.15491 2.49734C5.18751 2.46496 5.21332 2.4264 5.23084 2.38392C5.24836 2.34145 5.25723 2.2959 5.25693 2.24996C5.25663 2.20401 5.24717 2.15858 5.2291 2.11634C5.13197 1.90363 4.87131 1.90117 4.67089 1.90363C4.3795 1.90363 4.08933 1.92207 3.7967 1.92576C3.08972 1.93683 2.38274 1.94174 1.67452 1.94912C1.18271 1.94912 0.690899 1.98232 0.393353 2.42741C0.23883 2.67651 0.161007 2.96556 0.169578 3.25857V3.25857Z" fill="white"/>
<path d="M2.60781 5.67676C2.60781 5.67676 3.49308 8.01287 11.3375 11.8711L16.2925 14.565L19.0258 18.8118C19.0258 18.8118 16.7056 18.8118 14.5994 16.5704L11.2981 12.0875V16.354C11.2981 16.9626 9.96164 16.6651 9.96164 16.7081V18.0053H11.1408V18.6938H4.16071V18.079H6.65789V13.4499C6.65789 13.4499 8.7026 14.5909 8.54645 16.5372C8.54645 16.5372 8.23169 16.97 7.30709 16.7339V18.0508H9.31245C9.37924 17.1618 9.32798 16.268 9.15999 15.3925C8.88703 14.0917 7.8948 13.3269 6.77839 12.7392C6.43043 12.5572 6.07509 12.39 5.71484 12.2339C5.35459 12.0777 4.98327 11.9584 4.64638 11.7543C3.68857 11.1715 2.99389 10.1092 2.73692 9.02354C2.58199 8.37189 2.60781 7.69811 2.60781 7.03293V5.67676Z" fill="white"/>
</svg>
